<?xml version="1.0" encoding="UTF-8"?>
<svg id="Layer_1" xmlns="http://www.w3.org/2000/svg" version="1.1" viewBox="0 0 117.2 34">
  <!-- Generator: Adobe Illustrator 29.1.0, SVG Export Plug-In . SVG Version: 2.1.0 Build 142)  -->
  <defs>
    <style>
      .st0 {
        fill: #50c0ff;
      }
    </style>
  </defs>
  <g>
    <polygon points="48.2 0 43.5 8.2 38.8 0 30.5 0 39.3 15.5 28.7 34 37.2 34 56.4 0 48.2 0"/>
    <polygon points="48.7 17.4 44.5 24.8 49.7 34 58.2 34 48.7 17.4"/>
  </g>
  <g>
    <polygon points="77.4 0 72.7 8.2 68 0 59.7 0 68.5 15.5 57.9 34 66.4 34 85.6 0 77.4 0"/>
    <polygon points="77.9 17.4 73.7 24.8 78.9 34 87.4 34 77.9 17.4"/>
  </g>
  <g>
    <polygon points="107.1 0 102.4 8.2 97.7 0 89.4 0 98.2 15.5 87.6 34 96.1 34 115.4 0 107.1 0"/>
    <polygon points="107.6 17.4 103.5 24.8 108.7 34 117.2 34 107.6 17.4"/>
  </g>
  <polygon class="st0" points="19.5 .1 9.2 .1 0 34 7.4 34 8.4 30.1 17.8 30.1 16.4 23.9 9.9 23.9 13.9 7.2 14.3 7.2 18.7 25.8 20.9 34 28.6 34 19.5 .1"/>
</svg>