<svg width="512" height="512" viewBox="0 0 512 512" fill="none" xmlns="http://www.w3.org/2000/svg">
<path d="M124.926 223.76V229.52H136.606V235.4H124.926V245H118.166V217.8H138.446V223.76H124.926ZM166.406 217.8V232.32C166.406 240.76 161.526 245.6 153.726 245.6C145.966 245.6 141.086 240.76 141.086 232.32V217.8H147.886V232.44C147.886 236.6 150.166 239.28 153.726 239.28C157.286 239.28 159.606 236.6 159.606 232.44V217.8H166.406ZM181.511 217.2C185.911 217.2 192.471 218.92 193.151 226.24H186.351C185.991 224.2 184.711 222.8 181.951 222.8C179.631 222.8 178.071 223.76 178.071 225.52C178.071 227 179.151 227.64 181.191 228.08L184.991 228.96C189.951 230.04 193.191 232.04 193.191 236.72C193.191 242.16 188.711 245.56 181.911 245.56C175.791 245.56 170.271 242.68 169.631 235.96H176.391C176.831 238.36 178.911 239.8 182.111 239.8C184.631 239.8 185.951 238.88 185.951 237.4C185.951 236.48 185.391 235.52 183.071 235.08L178.591 234.08C173.231 232.92 170.711 230.4 170.711 226.08C170.711 220.64 175.111 217.2 181.511 217.2ZM204.027 217.8V245H197.267V217.8H204.027ZM222.59 217.24C230.83 217.24 237.03 223.48 237.03 231.4C237.03 239.32 230.83 245.56 222.59 245.56C214.39 245.56 208.19 239.32 208.19 231.4C208.19 223.48 214.39 217.24 222.59 217.24ZM222.59 239.28C226.99 239.28 230.15 235.68 230.15 231.4C230.15 227.12 226.99 223.52 222.59 223.52C218.19 223.52 215.03 227.12 215.03 231.4C215.03 235.68 218.19 239.28 222.59 239.28ZM266.174 217.8V245H260.934L247.894 230.08V245H241.134V217.8H246.294L259.414 233.12V217.8H266.174ZM289.939 231C293.259 231.72 294.939 234.52 294.939 237.44C294.939 241.96 291.299 245 285.179 245H270.939V217.8H284.379C290.259 217.8 293.739 220.6 293.739 225.04C293.739 227.56 292.339 230.16 289.939 231ZM277.699 223.32V228.88H283.339C285.859 228.88 287.259 227.72 287.259 225.96C287.259 224.24 285.939 223.32 283.339 223.32H277.699ZM277.699 239.4H284.299C287.059 239.4 288.299 238.16 288.299 236.56C288.299 234.88 286.899 234.04 284.419 234.04H277.699V239.4ZM309.673 237.12H305.473V245H298.713V217.8H310.633C317.353 217.8 321.873 221.48 321.873 227.36C321.873 231.16 319.913 234.16 316.673 235.8L323.673 245H315.513L309.673 237.12ZM305.473 231.04H310.473C313.073 231.04 315.153 229.6 315.153 227.36C315.153 225.16 313.073 223.76 310.473 223.76H305.473V231.04ZM345.359 240.32H333.839L332.039 245H324.839L336.399 217.64H342.839L354.359 245H347.199L345.359 240.32ZM343.119 234.56L339.599 225.52L336.079 234.56H343.119ZM364.027 217.8V245H357.267V217.8H364.027ZM393.87 217.8V245H388.63L375.59 230.08V245H368.83V217.8H373.99L387.11 233.12V217.8H393.87ZM237.76 279.04V285H217.56V257.8H224.32V279.04H237.76ZM259.559 280.32H248.039L246.239 285H239.039L250.599 257.64H257.039L268.559 285H261.399L259.559 280.32ZM257.319 274.56L253.799 265.52L250.279 274.56H257.319ZM290.466 271C293.786 271.72 295.466 274.52 295.466 277.44C295.466 281.96 291.826 285 285.706 285H271.466V257.8H284.906C290.786 257.8 294.266 260.6 294.266 265.04C294.266 267.56 292.866 270.16 290.466 271ZM278.226 263.32V268.88H283.866C286.386 268.88 287.786 267.72 287.786 265.96C287.786 264.24 286.466 263.32 283.866 263.32H278.226ZM278.226 279.4H284.826C287.586 279.4 288.826 278.16 288.826 276.56C288.826 274.88 287.426 274.04 284.946 274.04H278.226V279.4Z" fill="#050610"/>
</svg>
