<svg width="512" height="512" viewBox="0 0 512 512" fill="none" xmlns="http://www.w3.org/2000/svg">
<path d="M259.049 144.095C265.585 138.705 274.528 137.198 282.076 140.942C302.152 150.901 316 172 316 196.419C316 230.429 289.137 258 256 258C252.032 258 248.153 257.605 244.4 256.85C236.185 255.198 229.916 248.503 227.839 240.179C225.986 232.751 225 224.967 225 216.946C225 187.487 238.289 161.213 259.049 144.095ZM236.079 138.445C242.804 135.947 246.184 144.534 241.473 150.058C226.235 167.93 217 191.331 217 216.946C217 219.491 217.091 222.014 217.271 224.512C217.796 231.837 210.027 236.666 206.055 230.557C199.703 220.786 196 209.046 196 196.419C196 169.939 212.97 147.028 236.079 138.445Z" fill="#050610"/>
<path d="M124.926 301.76V307.52H136.606V313.4H124.926V323H118.166V295.8H138.446V301.76H124.926ZM166.406 295.8V310.32C166.406 318.76 161.526 323.6 153.726 323.6C145.966 323.6 141.086 318.76 141.086 310.32V295.8H147.886V310.44C147.886 314.6 150.166 317.28 153.726 317.28C157.286 317.28 159.606 314.6 159.606 310.44V295.8H166.406ZM181.511 295.2C185.911 295.2 192.471 296.92 193.151 304.24H186.351C185.991 302.2 184.711 300.8 181.951 300.8C179.631 300.8 178.071 301.76 178.071 303.52C178.071 305 179.151 305.64 181.191 306.08L184.991 306.96C189.951 308.04 193.191 310.04 193.191 314.72C193.191 320.16 188.711 323.56 181.911 323.56C175.791 323.56 170.271 320.68 169.631 313.96H176.391C176.831 316.36 178.911 317.8 182.111 317.8C184.631 317.8 185.951 316.88 185.951 315.4C185.951 314.48 185.391 313.52 183.071 313.08L178.591 312.08C173.231 310.92 170.711 308.4 170.711 304.08C170.711 298.64 175.111 295.2 181.511 295.2ZM204.027 295.8V323H197.267V295.8H204.027ZM222.59 295.24C230.83 295.24 237.03 301.48 237.03 309.4C237.03 317.32 230.83 323.56 222.59 323.56C214.39 323.56 208.19 317.32 208.19 309.4C208.19 301.48 214.39 295.24 222.59 295.24ZM222.59 317.28C226.99 317.28 230.15 313.68 230.15 309.4C230.15 305.12 226.99 301.52 222.59 301.52C218.19 301.52 215.03 305.12 215.03 309.4C215.03 313.68 218.19 317.28 222.59 317.28ZM266.174 295.8V323H260.934L247.894 308.08V323H241.134V295.8H246.294L259.414 311.12V295.8H266.174ZM289.939 309C293.259 309.72 294.939 312.52 294.939 315.44C294.939 319.96 291.299 323 285.179 323H270.939V295.8H284.379C290.259 295.8 293.739 298.6 293.739 303.04C293.739 305.56 292.339 308.16 289.939 309ZM277.699 301.32V306.88H283.339C285.859 306.88 287.259 305.72 287.259 303.96C287.259 302.24 285.939 301.32 283.339 301.32H277.699ZM277.699 317.4H284.299C287.059 317.4 288.299 316.16 288.299 314.56C288.299 312.88 286.899 312.04 284.419 312.04H277.699V317.4ZM309.673 315.12H305.473V323H298.713V295.8H310.633C317.353 295.8 321.873 299.48 321.873 305.36C321.873 309.16 319.913 312.16 316.673 313.8L323.673 323H315.513L309.673 315.12ZM305.473 309.04H310.473C313.073 309.04 315.153 307.6 315.153 305.36C315.153 303.16 313.073 301.76 310.473 301.76H305.473V309.04ZM345.359 318.32H333.839L332.039 323H324.839L336.399 295.64H342.839L354.359 323H347.199L345.359 318.32ZM343.119 312.56L339.599 303.52L336.079 312.56H343.119ZM364.027 295.8V323H357.267V295.8H364.027ZM393.87 295.8V323H388.63L375.59 308.08V323H368.83V295.8H373.99L387.11 311.12V295.8H393.87ZM237.76 357.04V363H217.56V335.8H224.32V357.04H237.76ZM259.559 358.32H248.039L246.239 363H239.039L250.599 335.64H257.039L268.559 363H261.399L259.559 358.32ZM257.319 352.56L253.799 343.52L250.279 352.56H257.319ZM290.466 349C293.786 349.72 295.466 352.52 295.466 355.44C295.466 359.96 291.826 363 285.706 363H271.466V335.8H284.906C290.786 335.8 294.266 338.6 294.266 343.04C294.266 345.56 292.866 348.16 290.466 349ZM278.226 341.32V346.88H283.866C286.386 346.88 287.786 345.72 287.786 343.96C287.786 342.24 286.466 341.32 283.866 341.32H278.226ZM278.226 357.4H284.826C287.586 357.4 288.826 356.16 288.826 354.56C288.826 352.88 287.426 352.04 284.946 352.04H278.226V357.4Z" fill="#050610"/>
</svg>
