<svg width="512" height="512" viewBox="0 0 512 512" fill="none" xmlns="http://www.w3.org/2000/svg">
<path d="M270.283 27.5469C297.637 4.99207 334.953 -1.23825 366.37 14.3457C451.353 56.5008 510 145.834 510 249.254C510 393.309 396.232 510 256 510C239.201 510 222.786 508.326 206.901 505.132C172.711 498.257 146.488 470.354 137.787 435.48C129.919 403.945 125.733 370.894 125.733 336.836C125.733 211.755 182.154 100.214 270.283 27.5469ZM171.698 3.77344C178.451 1.26538 184.179 1.59505 188.704 3.65039C193.253 5.71643 196.798 9.62283 198.975 14.6348C203.342 24.6888 202.065 38.931 192.498 50.1504C127.179 126.755 87.5996 227.058 87.5996 336.836C87.5996 347.742 87.9914 358.555 88.7598 369.261C89.8293 384.162 82.4546 396.376 73.0312 401.773C68.3338 404.464 63.182 405.438 58.29 404.321C53.4175 403.209 48.5789 399.97 44.5791 393.818C17.6823 352.448 2.00007 302.735 2 249.254C2 137.132 73.8635 40.1109 171.698 3.77344Z" fill="white" fill-opacity="0.2"/>
<path d="M270.283 27.5469C297.637 4.99207 334.953 -1.23825 366.37 14.3457C451.353 56.5008 510 145.834 510 249.254C510 393.309 396.232 510 256 510C239.201 510 222.786 508.326 206.901 505.132C172.711 498.257 146.488 470.354 137.787 435.48C129.919 403.945 125.733 370.894 125.733 336.836C125.733 211.755 182.154 100.214 270.283 27.5469ZM171.698 3.77344C178.451 1.26538 184.179 1.59505 188.704 3.65039C193.253 5.71643 196.798 9.62283 198.975 14.6348C203.342 24.6888 202.065 38.931 192.498 50.1504C127.179 126.755 87.5996 227.058 87.5996 336.836C87.5996 347.742 87.9914 358.555 88.7598 369.261C89.8293 384.162 82.4546 396.376 73.0312 401.773C68.3338 404.464 63.182 405.438 58.29 404.321C53.4175 403.209 48.5789 399.97 44.5791 393.818C17.6823 352.448 2.00007 302.735 2 249.254C2 137.132 73.8635 40.1109 171.698 3.77344Z" fill="url(#paint0_linear_247_16)"/>
<path d="M270.283 27.5469C297.637 4.99207 334.953 -1.23825 366.37 14.3457C451.353 56.5008 510 145.834 510 249.254C510 393.309 396.232 510 256 510C239.201 510 222.786 508.326 206.901 505.132C172.711 498.257 146.488 470.354 137.787 435.48C129.919 403.945 125.733 370.894 125.733 336.836C125.733 211.755 182.154 100.214 270.283 27.5469ZM171.698 3.77344C178.451 1.26538 184.179 1.59505 188.704 3.65039C193.253 5.71643 196.798 9.62283 198.975 14.6348C203.342 24.6888 202.065 38.931 192.498 50.1504C127.179 126.755 87.5996 227.058 87.5996 336.836C87.5996 347.742 87.9914 358.555 88.7598 369.261C89.8293 384.162 82.4546 396.376 73.0312 401.773C68.3338 404.464 63.182 405.438 58.29 404.321C53.4175 403.209 48.5789 399.97 44.5791 393.818C17.6823 352.448 2.00007 302.735 2 249.254C2 137.132 73.8635 40.1109 171.698 3.77344Z" stroke="white" stroke-width="4" style="mix-blend-mode:overlay"/>
<defs>
<linearGradient id="paint0_linear_247_16" x1="256" y1="-13.4916" x2="256" y2="512.001" gradientUnits="userSpaceOnUse">
<stop stop-color="#9C9DEB"/>
<stop offset="1" stop-color="#2223DA"/>
</linearGradient>
</defs>
</svg>
