<svg width="512" height="512" viewBox="0 0 512 512" fill="none" xmlns="http://www.w3.org/2000/svg">
<path d="M269.011 26.0036C296.898 3.0095 335.052 -3.42175 367.259 12.5545C452.915 55.0436 512 145.066 512 249.254C512 394.364 397.385 512 256 512C239.068 512 222.52 510.313 206.507 507.093C171.454 500.045 144.708 471.479 135.847 435.965C127.939 404.272 123.733 371.058 123.733 336.836C123.733 211.143 180.432 99.041 269.011 26.0036ZM171.002 1.89874C199.698 -8.75961 214.118 27.8774 194.02 51.4477C129.001 127.7 89.6 227.546 89.6 336.836C89.6 347.694 89.9893 358.46 90.7543 369.118C92.9976 400.372 59.8505 420.977 42.9024 394.908C15.7993 353.22 0 303.13 0 249.254C0 136.274 72.4039 38.5197 171.002 1.89874Z" fill="url(#paint0_linear_247_23)"/>
<defs>
<linearGradient id="paint0_linear_247_23" x1="256" y1="-13.4916" x2="256" y2="512.001" gradientUnits="userSpaceOnUse">
<stop stop-color="#050610"/>
<stop offset="1" stop-color="#050610"/>
</linearGradient>
</defs>
</svg>
