<svg width="512" height="512" viewBox="0 0 512 512" fill="none" xmlns="http://www.w3.org/2000/svg">
<path d="M260.321 145.638C266.325 140.688 274.429 139.382 281.188 142.734C300.59 152.359 314 172.768 314 196.419C314 229.374 287.984 256 256 256C252.165 256 248.418 255.617 244.794 254.889C237.44 253.41 231.696 247.378 229.779 239.695C227.965 232.425 227 224.803 227 216.946C227 188.099 240.01 162.385 260.321 145.638ZM236.775 140.32C238.035 139.852 238.954 139.959 239.595 140.25C240.259 140.552 240.845 141.152 241.23 142.04C242.015 143.846 241.824 146.564 239.951 148.761C224.412 166.985 215 190.844 215 216.946C215 219.539 215.093 222.11 215.275 224.655C215.486 227.592 214.027 229.879 212.355 230.837C211.534 231.307 210.718 231.433 210.003 231.27C209.308 231.111 208.488 230.629 207.732 229.467C201.586 220.013 198 208.651 198 196.419C198 170.797 214.43 148.62 236.775 140.32Z" fill="white" fill-opacity="0.2"/>
<path d="M260.321 145.638C266.325 140.688 274.429 139.382 281.188 142.734C300.59 152.359 314 172.768 314 196.419C314 229.374 287.984 256 256 256C252.165 256 248.418 255.617 244.794 254.889C237.44 253.41 231.696 247.378 229.779 239.695C227.965 232.425 227 224.803 227 216.946C227 188.099 240.01 162.385 260.321 145.638ZM236.775 140.32C238.035 139.852 238.954 139.959 239.595 140.25C240.259 140.552 240.845 141.152 241.23 142.04C242.015 143.846 241.824 146.564 239.951 148.761C224.412 166.985 215 190.844 215 216.946C215 219.539 215.093 222.11 215.275 224.655C215.486 227.592 214.027 229.879 212.355 230.837C211.534 231.307 210.718 231.433 210.003 231.27C209.308 231.111 208.488 230.629 207.732 229.467C201.586 220.013 198 208.651 198 196.419C198 170.797 214.43 148.62 236.775 140.32Z" fill="url(#paint0_linear_247_45)"/>
<path d="M260.321 145.638C266.325 140.688 274.429 139.382 281.188 142.734C300.59 152.359 314 172.768 314 196.419C314 229.374 287.984 256 256 256C252.165 256 248.418 255.617 244.794 254.889C237.44 253.41 231.696 247.378 229.779 239.695C227.965 232.425 227 224.803 227 216.946C227 188.099 240.01 162.385 260.321 145.638ZM236.775 140.32C238.035 139.852 238.954 139.959 239.595 140.25C240.259 140.552 240.845 141.152 241.23 142.04C242.015 143.846 241.824 146.564 239.951 148.761C224.412 166.985 215 190.844 215 216.946C215 219.539 215.093 222.11 215.275 224.655C215.486 227.592 214.027 229.879 212.355 230.837C211.534 231.307 210.718 231.433 210.003 231.27C209.308 231.111 208.488 230.629 207.732 229.467C201.586 220.013 198 208.651 198 196.419C198 170.797 214.43 148.62 236.775 140.32Z" stroke="white" stroke-width="4" style="mix-blend-mode:overlay"/>
<path d="M84.9256 301.76V307.52H96.6056V313.4H84.9256V323H78.1656V295.8H98.4456V301.76H84.9256ZM134.406 295.8V310.32C134.406 318.76 129.526 323.6 121.726 323.6C113.966 323.6 109.086 318.76 109.086 310.32V295.8H115.886V310.44C115.886 314.6 118.166 317.28 121.726 317.28C125.286 317.28 127.606 314.6 127.606 310.44V295.8H134.406ZM157.511 295.2C161.911 295.2 168.471 296.92 169.151 304.24H162.351C161.991 302.2 160.711 300.8 157.951 300.8C155.631 300.8 154.071 301.76 154.071 303.52C154.071 305 155.151 305.64 157.191 306.08L160.991 306.96C165.951 308.04 169.191 310.04 169.191 314.72C169.191 320.16 164.711 323.56 157.911 323.56C151.791 323.56 146.271 320.68 145.631 313.96H152.391C152.831 316.36 154.911 317.8 158.111 317.8C160.631 317.8 161.951 316.88 161.951 315.4C161.951 314.48 161.391 313.52 159.071 313.08L154.591 312.08C149.231 310.92 146.711 308.4 146.711 304.08C146.711 298.64 151.111 295.2 157.511 295.2ZM188.027 295.8V323H181.267V295.8H188.027ZM214.59 295.24C222.83 295.24 229.03 301.48 229.03 309.4C229.03 317.32 222.83 323.56 214.59 323.56C206.39 323.56 200.19 317.32 200.19 309.4C200.19 301.48 206.39 295.24 214.59 295.24ZM214.59 317.28C218.99 317.28 222.15 313.68 222.15 309.4C222.15 305.12 218.99 301.52 214.59 301.52C210.19 301.52 207.03 305.12 207.03 309.4C207.03 313.68 210.19 317.28 214.59 317.28ZM266.174 295.8V323H260.934L247.894 308.08V323H241.134V295.8H246.294L259.414 311.12V295.8H266.174ZM297.939 309C301.259 309.72 302.939 312.52 302.939 315.44C302.939 319.96 299.299 323 293.179 323H278.939V295.8H292.379C298.259 295.8 301.739 298.6 301.739 303.04C301.739 305.56 300.339 308.16 297.939 309ZM285.699 301.32V306.88H291.339C293.859 306.88 295.259 305.72 295.259 303.96C295.259 302.24 293.939 301.32 291.339 301.32H285.699ZM285.699 317.4H292.299C295.059 317.4 296.299 316.16 296.299 314.56C296.299 312.88 294.899 312.04 292.419 312.04H285.699V317.4ZM325.673 315.12H321.473V323H314.713V295.8H326.633C333.353 295.8 337.873 299.48 337.873 305.36C337.873 309.16 335.913 312.16 332.673 313.8L339.673 323H331.513L325.673 315.12ZM321.473 309.04H326.473C329.073 309.04 331.153 307.6 331.153 305.36C331.153 303.16 329.073 301.76 326.473 301.76H321.473V309.04ZM369.359 318.32H357.839L356.039 323H348.839L360.399 295.64H366.839L378.359 323H371.199L369.359 318.32ZM367.119 312.56L363.599 303.52L360.079 312.56H367.119ZM396.027 295.8V323H389.267V295.8H396.027ZM433.87 295.8V323H428.63L415.59 308.08V323H408.83V295.8H413.99L427.11 311.12V295.8H433.87ZM228.76 357.04V363H208.56V335.8H215.32V357.04H228.76ZM259.559 358.32H248.039L246.239 363H239.039L250.599 335.64H257.039L268.559 363H261.399L259.559 358.32ZM257.319 352.56L253.799 343.52L250.279 352.56H257.319ZM299.466 349C302.786 349.72 304.466 352.52 304.466 355.44C304.466 359.96 300.826 363 294.706 363H280.466V335.8H293.906C299.786 335.8 303.266 338.6 303.266 343.04C303.266 345.56 301.866 348.16 299.466 349ZM287.226 341.32V346.88H292.866C295.386 346.88 296.786 345.72 296.786 343.96C296.786 342.24 295.466 341.32 292.866 341.32H287.226ZM287.226 357.4H293.826C296.586 357.4 297.826 356.16 297.826 354.56C297.826 352.88 296.426 352.04 293.946 352.04H287.226V357.4Z" fill="#2223DA"/>
<defs>
<linearGradient id="paint0_linear_247_45" x1="256" y1="134.838" x2="256" y2="258" gradientUnits="userSpaceOnUse">
<stop stop-color="#9C9DEB"/>
<stop offset="1" stop-color="#2223DA"/>
</linearGradient>
</defs>
</svg>
