<?xml version="1.0" encoding="utf-8"?>
<!-- Generator: Adobe Illustrator 26.0.1, SVG Export Plug-In . SVG Version: 6.00 Build 0)  -->
<svg version="1.1" id="Layer_1" xmlns="http://www.w3.org/2000/svg" xmlns:xlink="http://www.w3.org/1999/xlink" x="0px" y="0px"
	 viewBox="0 0 710 170.08" style="enable-background:new 0 0 710 170.08;" xml:space="preserve">
<style type="text/css">
	.st0{fill:#002F87;}
	.st1{fill:#FFFFFF;}
</style>
<g>
	<circle class="st0" cx="85.04" cy="85.04" r="85.04"/>
	<path class="st1" d="M99.59,77.38c5.52-2.27,8.88-5.75,11.09-8.39c4.22-4.84,5.94-10.77,5.94-16.39c0-4.53-1.25-13.59-9.21-19.82
		c-5.47-4.22-10.31-6.25-21.86-6.25H79.7c-0.19-0.01-0.36-0.01-0.58-0.01H55v113.88h68.85v-21.86
		C123.84,97.62,117.1,83.56,99.59,77.38z M108.25,134.12H95.83V96.1H81.5v38.06H70.52V32.19L81.8,32.2c4.22,0,10.62,0.94,15.15,6.56
		c2.36,2.85,3.8,6.63,4.31,10.43H81.5v5.61h19.92c-0.15,3.62-0.9,7.68-4.45,11.99c-3.12,3.9-8.26,7.53-15.49,7.53
		c-0.04,0-0.09,0-0.13,0v5.69c19.35,0,26.89,12.86,26.89,36.41V134.12z"/>
	<g>
		<path class="st0" d="M243.62,36.27h20.62V13.16h20.63v66.86h-20.63V54.8h-20.62v25.22h-20.63V13.16h20.63V36.27z"/>
		<path class="st0" d="M305.52,58.24c4.78,5.06,10.98,6.5,14.14,6.5c3.25,0,5.83-1.81,5.83-4.97c0-6.97-27.8-1.62-27.8-27.8
			c0-10.51,8.22-20.25,24.17-20.25c9.65,0,15.19,3.06,22.93,9.65l-10.41,11.94c-4.78-4.01-7.83-5.73-12.61-5.73
			c-2.96,0-4.58,0.76-4.58,3.73c0,7.26,27.89,2.67,27.89,28.46c0,11.08-6.88,21.68-25.41,21.68c-8.69,0-16.72-2.96-24.55-11.27
			L305.52,58.24z"/>
		<path class="st0" d="M397.62,80.02h-41.56V13.16h41.56v17.96h-20.93v6.69h19.69v17h-19.69v7.26h20.93V80.02z"/>
		<path class="st0" d="M275.87,132.12c0,15.37-10.93,26.03-26.38,26.03c-15.46,0-26.38-10.66-26.38-26.03V94.63h6.93v37.49
			c0,11.73,8.62,19.28,19.46,19.28c10.84,0,19.45-7.55,19.45-19.28V94.63h6.93V132.12z"/>
		<path class="st0" d="M335.92,144.82V94.63h6.93v62.19h-6.93l-38.02-50.1v50.1h-6.93V94.63h6.93L335.92,144.82z"/>
		<path class="st0" d="M368.27,156.81h-6.93V94.63h6.93V156.81z"/>
		<path class="st0" d="M385.19,94.63l19.37,47.53l19.46-47.53h7.73l-26.03,62.19h-2.22l-26.03-62.19H385.19z"/>
		<path class="st0" d="M471.75,156.81h-30.83V94.63h30.83v6.75h-23.9v19.72h21.68v6.75h-21.68v22.21h23.9V156.81z"/>
		<path class="st0" d="M491.7,133.18v23.63h-6.93V94.63h17.86c10.84,0,19.9,8.35,19.9,19.37c0,9.24-6.84,16.79-15.9,18.21
			c5.15,2.04,9.15,18.03,17.86,18.03c0.8,0,1.6-0.09,2.31-0.36v6.93c-1.24,0.36-2.58,0.53-3.91,0.53
			c-14.39,0-18.92-24.16-23.99-24.16H491.7z M502,126.43c7.2,0,13.68-4.89,13.68-12.44c0-7.55-6.49-12.61-13.68-12.61H491.7v25.05
			H502z"/>
		<path class="st0" d="M576.48,139.4c0,10.13-8.62,18.74-21.85,18.74c-8.88,0-15.19-3.46-21.77-10.04l4.26-5.24
			c5.6,5.42,10.57,8.71,17.5,8.71c9.33,0,14.84-5.77,14.84-12.08c0-16.35-34.56-4.97-34.56-29.49c0-10.04,7.82-16.7,19.46-16.7
			c9.24,0,14.66,3.46,21.23,9.68l-4.35,5.6c-5.69-5.69-9.86-8.79-16.97-8.79c-7.64,0-12.7,4-12.7,10.22
			C541.57,126.7,576.48,115.42,576.48,139.4z"/>
		<path class="st0" d="M596.43,156.81h-6.93V94.63h6.93V156.81z"/>
		<path class="st0" d="M627.29,156.81v-55.43h-21.23v-6.75h49.39v6.75h-21.23v55.43H627.29z"/>
		<path class="st0" d="M660.78,94.63h7.82l16.79,32.69l16.79-32.69H710l-21.14,41.04v21.14h-6.93v-21.14L660.78,94.63z"/>
	</g>
</g>
</svg>
